<svg width="48" height="48" viewBox="0 0 48 48" fill="none" xmlns="http://www.w3.org/2000/svg">
<path d="M26.0828 31.1183C30.0004 31.1183 33.1762 27.9425 33.1762 24.025C33.1762 20.1074 30.0004 16.9316 26.0828 16.9316C22.1653 16.9316 18.9895 20.1074 18.9895 24.025C18.9895 27.9425 22.1653 31.1183 26.0828 31.1183Z" fill="white"/>
<path d="M34.5095 32.8249C32.3762 34.7449 29.5495 35.8116 26.4562 35.8116C24.8847 35.8561 23.3207 35.5785 21.8606 34.9959C20.4004 34.4132 19.075 33.5379 17.9658 32.4237C16.8567 31.3096 15.9873 29.9802 15.4112 28.5175C14.8352 27.0547 14.5646 25.4895 14.6162 23.9182C14.6162 17.0382 19.4695 12.2382 26.4562 12.2382C29.4962 12.2382 32.3762 13.2516 34.5628 15.1716L36.0562 16.4516L42.6695 9.83824L41.0162 8.34491C37.0113 4.77281 31.8225 2.81516 26.4562 2.85157C14.1895 2.85157 5.28284 11.7049 5.28284 23.8649C5.21767 26.6682 5.71998 29.4558 6.7596 32.06C7.79922 34.6643 9.35469 37.0314 11.3325 39.0192C13.3103 41.0069 15.6696 42.5743 18.2686 43.627C20.8676 44.6797 23.6525 45.196 26.4562 45.1449C32.0562 45.1449 37.2828 43.1716 41.1228 39.5982L42.7228 38.1049L36.0028 31.4916L34.5095 32.8249Z" fill="white"/>
</svg>
