<svg width="122" height="22" viewBox="0 0 122 22" fill="none" xmlns="http://www.w3.org/2000/svg">
<rect width="121.065" height="21.9545" fill="#191D1F"/>
<path d="M7.3125 5.15909L10.3409 14.3182H10.4602L13.483 5.15909H15.8011L11.6989 16.7955H9.09659L5 5.15909H7.3125ZM17.3338 16.7955V5.15909H24.902V6.92614H19.4418V10.0852H24.5099V11.8523H19.4418V15.0284H24.9474V16.7955H17.3338ZM36.6151 5.15909V16.7955H34.7401L29.2571 8.86932H29.1605V16.7955H27.0526V5.15909H28.9389L34.4162 13.0909H34.5185V5.15909H36.6151ZM42.8551 16.7955H38.9119V5.15909H42.9347C44.09 5.15909 45.0824 5.39205 45.9119 5.85796C46.7453 6.32008 47.3854 6.98485 47.8324 7.85227C48.2794 8.7197 48.5028 9.75758 48.5028 10.9659C48.5028 12.178 48.2775 13.2197 47.8267 14.0909C47.3797 14.9621 46.7339 15.6307 45.8892 16.0966C45.0483 16.5625 44.0369 16.7955 42.8551 16.7955ZM41.0199 14.9716H42.7528C43.5634 14.9716 44.2396 14.8239 44.7812 14.5284C45.3229 14.2292 45.7301 13.7841 46.0028 13.1932C46.2756 12.5985 46.4119 11.8561 46.4119 10.9659C46.4119 10.0758 46.2756 9.33712 46.0028 8.75C45.7301 8.15909 45.3267 7.7178 44.7926 7.42614C44.2623 7.13068 43.6032 6.98296 42.8153 6.98296H41.0199V14.9716ZM51.375 16.7955H49.125L53.2216 5.15909H55.8239L59.9261 16.7955H57.6761L54.5682 7.54546H54.4773L51.375 16.7955ZM51.4489 12.233H57.5852V13.9261H51.4489V12.233ZM60.8168 16.7955H60.0668L66.1974 5.15909H67.0156L69.2827 16.7955H68.5327L66.4929 6.07386H66.4304L60.8168 16.7955ZM62.6122 12.4148H68.2031L68.0895 13.0739H62.4986L62.6122 12.4148ZM71.4531 16.7955L73.3849 5.15909H76.9702C77.705 5.15909 78.313 5.30303 78.794 5.59091C79.2789 5.875 79.6198 6.27273 79.8168 6.78409C80.0175 7.29546 80.063 7.88826 79.9531 8.5625C79.8395 9.22917 79.599 9.81629 79.2315 10.3239C78.8641 10.8276 78.3925 11.2216 77.8168 11.5057C77.2448 11.7898 76.5914 11.9318 75.8565 11.9318H72.6406L72.7486 11.267H75.9474C76.5421 11.267 77.0705 11.1553 77.5327 10.9318C77.9986 10.7083 78.3774 10.3939 78.669 9.98864C78.9645 9.58333 79.1577 9.10796 79.2486 8.5625C79.3395 8.00568 79.3054 7.52273 79.1463 7.11364C78.9872 6.70076 78.7126 6.38258 78.3224 6.15909C77.9323 5.93182 77.438 5.81818 76.8395 5.81818H73.9815L72.1634 16.7955H71.4531ZM77.1122 11.5227L79.0952 16.7955H78.294L76.3224 11.5227H77.1122ZM81.8935 16.8693C81.7192 16.8693 81.5772 16.8106 81.4673 16.6932C81.3575 16.572 81.3045 16.4261 81.3082 16.2557C81.3158 16.089 81.3821 15.947 81.5071 15.8295C81.6359 15.7121 81.7836 15.6534 81.9503 15.6534C82.1207 15.6534 82.2628 15.714 82.3764 15.8352C82.4938 15.9527 82.5469 16.0928 82.5355 16.2557C82.5279 16.3693 82.4938 16.4735 82.4332 16.5682C82.3764 16.6629 82.2988 16.7367 82.2003 16.7898C82.1056 16.8428 82.0033 16.8693 81.8935 16.8693ZM86.0923 5.81818L86.206 5.15909H94.3594L94.2457 5.81818H90.5241L88.706 16.7955H87.9957L89.8139 5.81818H86.0923ZM105.607 10.9773C105.607 12.2311 105.372 13.3049 104.902 14.1989C104.436 15.089 103.8 15.7708 102.993 16.2443C102.19 16.7178 101.279 16.9545 100.26 16.9545C99.241 16.9545 98.3281 16.7178 97.5213 16.2443C96.7183 15.767 96.0819 15.0833 95.6122 14.1932C95.1463 13.2992 94.9134 12.2273 94.9134 10.9773C94.9134 9.72349 95.1463 8.65152 95.6122 7.76136C96.0819 6.86743 96.7183 6.18371 97.5213 5.71023C98.3281 5.23674 99.241 5 100.26 5C101.279 5 102.19 5.23674 102.993 5.71023C103.8 6.18371 104.436 6.86743 104.902 7.76136C105.372 8.65152 105.607 9.72349 105.607 10.9773ZM103.487 10.9773C103.487 10.0947 103.349 9.35038 103.072 8.74432C102.8 8.13447 102.421 7.67424 101.936 7.36364C101.451 7.04924 100.893 6.89205 100.26 6.89205C99.6274 6.89205 99.0687 7.04924 98.5838 7.36364C98.099 7.67424 97.7183 8.13447 97.4418 8.74432C97.169 9.35038 97.0327 10.0947 97.0327 10.9773C97.0327 11.8598 97.169 12.6061 97.4418 13.2159C97.7183 13.822 98.099 14.2822 98.5838 14.5966C99.0687 14.9072 99.6274 15.0625 100.26 15.0625C100.893 15.0625 101.451 14.9072 101.936 14.5966C102.421 14.2822 102.8 13.822 103.072 13.2159C103.349 12.6061 103.487 11.8598 103.487 10.9773ZM107.599 16.7955V5.15909H111.963C112.857 5.15909 113.607 5.32576 114.213 5.65909C114.823 5.99242 115.283 6.45076 115.594 7.03409C115.908 7.61364 116.065 8.27273 116.065 9.01136C116.065 9.75758 115.908 10.4205 115.594 11C115.279 11.5795 114.815 12.036 114.202 12.3693C113.588 12.6989 112.832 12.8636 111.935 12.8636H109.043V11.1307H111.651C112.173 11.1307 112.601 11.0398 112.935 10.858C113.268 10.6761 113.514 10.4261 113.673 10.108C113.836 9.78977 113.918 9.42424 113.918 9.01136C113.918 8.59849 113.836 8.23485 113.673 7.92046C113.514 7.60606 113.266 7.36174 112.929 7.1875C112.596 7.00947 112.166 6.92046 111.639 6.92046H109.707V16.7955H107.599Z" fill="white"/>
</svg>
